# xmcd
#
# Track frame offsets:
#	150
#	22409
#	48762
#	68151
#	100166
#	122584
#	148242
#	178079
#	204039
#	227883
#	250845
#	278542
#	298692
#	320820
#
# Disc length: 4623 seconds
# Revision: 2
# Processed by: cddbd v1.5.2PL0 Copyright (c) Steve Scherf et al.
# Submitted via: dBpowerAMP V12.0
#
DISCID=d1120d0e
DTITLE=Nick Moss - Time Ain't Free
DYEAR=2014
DGENRE=Blues
TTITLE0=She Wants It
TTITLE1=Was I Ever Heard
TTITLE2=Light It Up
TTITLE3=Fare Thee Well
TTITLE4=Time Ain't Free
TTITLE5=Been Gone So Long
TTITLE6=Tell You Somethin' About Yourself
TTITLE7=I Want The World To Know
TTITLE8=Death Letter Blues
TTITLE9=No Reason
TTITLE10=Ez Bree Zee
TTITLE11=Walkin' On A Ledge
TTITLE12=Bad 'N' Ruin
TTITLE13=(Big Mike's) Sweet Potato Pie
EXTD=
EXTT0=
EXTT1=
EXTT2=
EXTT3=
EXTT4=
EXTT5=
EXTT6=
EXTT7=
EXTT8=
EXTT9=
EXTT10=
EXTT11=
EXTT12=
EXTT13=
PLAYORDER=
